<svg xmlns="http://www.w3.org/2000/svg" width="461" height="165" viewBox="0 0 461 165" font-family="Arial,'Helvetica Neue','Microsoft YaHei',sans-serif">
<rect x="0" y="0" width="461" height="165" fill="#FFFFFF"/>
<rect x="16.5" y="16.5" width="429" height="132" rx="8" fill="none" stroke="#C0C0C0" stroke-width="5"/>
<rect x="20.5" y="20.5" width="420" height="123.5" rx="5" fill="#FCFAD1" stroke="#FFC800" stroke-width="1"/>
<path d="M21 47 L21 26 Q21 21 26 21 L434 21 Q439 21 439 26 L439 47 Z" fill="#D7D5AC"/>
<rect x="25" y="24" width="20" height="19" rx="5" fill="#90CA6D"/>
<text x="59" y="39.5" font-size="13" font-weight="bold" fill="#000000">Connection</text>
<text x="436" y="39" font-size="11" font-style="italic" fill="#7A7856" text-anchor="end">interface</text>
<rect x="29" y="54" width="8" height="84" fill="#FAB8B3"/>
<line x1="21" y1="47" x2="439" y2="47" stroke="#5A5A5A" stroke-width="1" shape-rendering="crispEdges"/>
<line x1="21" y1="72" x2="439" y2="72" stroke="#5A5A5A" stroke-width="1" shape-rendering="crispEdges"/>
<line x1="21" y1="96" x2="439" y2="96" stroke="#5A5A5A" stroke-width="1" shape-rendering="crispEdges"/>
<line x1="21" y1="120" x2="439" y2="120" stroke="#5A5A5A" stroke-width="1" shape-rendering="crispEdges"/>
<rect x="44" y="56" width="8" height="8" rx="2" fill="#90CA6D"/>
<text x="59" y="64" font-size="13" fill="#000000">getPostConnectOutput()</text>
<text x="436" y="64" font-size="13" fill="#000000" text-anchor="end">String</text>
<rect x="44" y="80" width="8" height="8" rx="2" fill="#90CA6D"/>
<text x="59" y="88" font-size="13" fill="#000000">sendCommand(CommandConfigurer)</text>
<text x="436" y="88" font-size="13" fill="#000000" text-anchor="end">CommandResult</text>
<rect x="44" y="104" width="8" height="8" rx="2" fill="#90CA6D"/>
<text x="59" y="112" font-size="13" fill="#000000">isConnected()</text>
<text x="436" y="112" font-size="13" fill="#000000" text-anchor="end">boolean</text>
<rect x="44" y="128" width="8" height="8" rx="2" fill="#90CA6D"/>
<text x="59" y="136" font-size="13" fill="#000000">close()</text>
<text x="436" y="136" font-size="13" fill="#000000" text-anchor="end">void</text>
</svg>
